<?xml version="1.0" encoding="utf-8"?>
<!-- Generator: Adobe Illustrator 24.1.1, SVG Export Plug-In . SVG Version: 6.00 Build 0)  -->
<svg version="1.1" xmlns="http://www.w3.org/2000/svg" xmlns:xlink="http://www.w3.org/1999/xlink" x="0px" y="0px"
	 viewBox="0 0 1000 1000" style="enable-background:new 0 0 1000 1000;" xml:space="preserve">
<style type="text/css">
	.st0{fill:#FFF000;}
	.st1{fill:#FFFFFF;}
	.st2{fill:#231815;}
	.st3{fill:#231815;stroke:#231815;stroke-width:2.3136;stroke-miterlimit:10;}
	.st4{fill:none;}
	.st5{fill:#FAED00;}
	.st6{fill:#EA6000;}
	.st7{fill:#FFF000;stroke:#FFFFFF;stroke-width:3.3335;stroke-miterlimit:10;}
</style>
<g id="ең–еұӨ_1">
</g>
<g id="ең–еұӨ_2">
</g>
<g id="ең–еұӨ_3">
	<g>
		<path class="st4" d="M410.32,419.56v-69.15h-4.91v334.99h54.84c34.89,0,64.32-16.93,88.31-50.81
			c23.98-33.88,35.97-80,35.97-138.37c0-49.97-10.65-93.08-31.95-129.31c-21.31-36.23-52.08-54.34-92.33-54.34l-12.96,10v106.99
			L410.32,419.56z"/>
		<rect x="405.41" y="312.58" class="st4" width="4.91" height="3.39"/>
		<g>
			<path d="M719.37,259.24C662.01,190.82,575.64,156.6,460.25,156.6h-10.96v155.97h10.96c40.25,0,71.02,18.11,92.33,54.34
				c21.3,36.23,31.95,79.34,31.95,129.31c0,58.36-12,104.49-35.97,138.37c-23.99,33.88-53.42,50.81-88.31,50.81h-54.84V350.41
				H194.59V843.4h278.74c98.28,0,178.19-32.11,239.75-96.35c61.55-64.23,92.33-147.68,92.33-250.32
				C805.41,406.84,776.73,327.67,719.37,259.24z"/>
		</g>
		<path class="st0" d="M410.32,312.58L410.32,312.58V156.6H194.59v159.36h210.82l0,0c0-0.2,0.65-0.08,1.55,0.07
			C408.98,316.38,410.72,314.59,410.32,312.58z"/>
	</g>
</g>
<g id="ең–еұӨ_4">
</g>
<g id="ең–еұӨ_5">
</g>
<g id="ең–еұӨ_6">
</g>
<g id="ең–еұӨ_7">
</g>
<g id="ең–еұӨ_8">
</g>
<g id="ең–еұӨ_10">
</g>
<g id="ең–еұӨ_11">
</g>
<g id="ең–еұӨ_12">
</g>
<g id="ең–еұӨ_9">
</g>
</svg>
